<mxfile host="app.diagrams.net" agent="Mozilla/5.0 (Windows NT 10.0; Win64; x64) AppleWebKit/537.36 (KHTML, like Gecko) Chrome/133.0.0.0 Safari/537.36 Edg/133.0.0.0" version="26.0.16">
  <diagram id="C5RBs43oDa-KdzZeNtuy" name="Page-1">
    <mxGraphModel dx="2069" dy="565" grid="1" gridSize="10" guides="1" tooltips="1" connect="1" arrows="1" fold="1" page="1" pageScale="1" pageWidth="827" pageHeight="1169" math="0" shadow="0">
      <root>
        <mxCell id="WIyWlLk6GJQsqaUBKTNV-0" />
        <mxCell id="WIyWlLk6GJQsqaUBKTNV-1" parent="WIyWlLk6GJQsqaUBKTNV-0" />
        <mxCell id="zkfFHV4jXpPFQw0GAbJ--0" value="Usuario" style="swimlane;fontStyle=2;align=center;verticalAlign=top;childLayout=stackLayout;horizontal=1;startSize=26;horizontalStack=0;resizeParent=1;resizeLast=0;collapsible=1;marginBottom=0;rounded=0;shadow=0;strokeWidth=1;" parent="WIyWlLk6GJQsqaUBKTNV-1" vertex="1">
          <mxGeometry x="530" y="110" width="160" height="170" as="geometry">
            <mxRectangle x="230" y="140" width="160" height="26" as="alternateBounds" />
          </mxGeometry>
        </mxCell>
        <mxCell id="zkfFHV4jXpPFQw0GAbJ--1" value="Nombre: string" style="text;align=left;verticalAlign=top;spacingLeft=4;spacingRight=4;overflow=hidden;rotatable=0;points=[[0,0.5],[1,0.5]];portConstraint=eastwest;" parent="zkfFHV4jXpPFQw0GAbJ--0" vertex="1">
          <mxGeometry y="26" width="160" height="26" as="geometry" />
        </mxCell>
        <mxCell id="zkfFHV4jXpPFQw0GAbJ--2" value="Email : string" style="text;align=left;verticalAlign=top;spacingLeft=4;spacingRight=4;overflow=hidden;rotatable=0;points=[[0,0.5],[1,0.5]];portConstraint=eastwest;rounded=0;shadow=0;html=0;" parent="zkfFHV4jXpPFQw0GAbJ--0" vertex="1">
          <mxGeometry y="52" width="160" height="26" as="geometry" />
        </mxCell>
        <mxCell id="zkfFHV4jXpPFQw0GAbJ--3" value="Direccion : string" style="text;align=left;verticalAlign=top;spacingLeft=4;spacingRight=4;overflow=hidden;rotatable=0;points=[[0,0.5],[1,0.5]];portConstraint=eastwest;rounded=0;shadow=0;html=0;" parent="zkfFHV4jXpPFQw0GAbJ--0" vertex="1">
          <mxGeometry y="78" width="160" height="26" as="geometry" />
        </mxCell>
        <mxCell id="zkfFHV4jXpPFQw0GAbJ--4" value="" style="line;html=1;strokeWidth=1;align=left;verticalAlign=middle;spacingTop=-1;spacingLeft=3;spacingRight=3;rotatable=0;labelPosition=right;points=[];portConstraint=eastwest;" parent="zkfFHV4jXpPFQw0GAbJ--0" vertex="1">
          <mxGeometry y="104" width="160" height="8" as="geometry" />
        </mxCell>
        <mxCell id="zkfFHV4jXpPFQw0GAbJ--5" value="+registrarUsuario()&#xa;+actualizarUsuario()&#xa;+obtenerInformacion()" style="text;align=left;verticalAlign=top;spacingLeft=4;spacingRight=4;overflow=hidden;rotatable=0;points=[[0,0.5],[1,0.5]];portConstraint=eastwest;" parent="zkfFHV4jXpPFQw0GAbJ--0" vertex="1">
          <mxGeometry y="112" width="160" height="58" as="geometry" />
        </mxCell>
        <mxCell id="Ull-ZQKAS_osXWNF02XS-26" value="Cerdo" style="swimlane;fontStyle=2;align=center;verticalAlign=top;childLayout=stackLayout;horizontal=1;startSize=26;horizontalStack=0;resizeParent=1;resizeLast=0;collapsible=1;marginBottom=0;rounded=0;shadow=0;strokeWidth=1;" vertex="1" parent="WIyWlLk6GJQsqaUBKTNV-1">
          <mxGeometry x="240" y="130" width="160" height="210" as="geometry">
            <mxRectangle x="230" y="140" width="160" height="26" as="alternateBounds" />
          </mxGeometry>
        </mxCell>
        <mxCell id="Ull-ZQKAS_osXWNF02XS-29" value="id : int&#xa;genero : string&#xa;codigo : string&#xa;edad : int&#xa;peso : float&#xa;padre_id : int&#xa;codigoDeParto : string&#xa;usuario_id : int" style="text;align=left;verticalAlign=top;spacingLeft=4;spacingRight=4;overflow=hidden;rotatable=0;points=[[0,0.5],[1,0.5]];portConstraint=eastwest;rounded=0;shadow=0;html=0;" vertex="1" parent="Ull-ZQKAS_osXWNF02XS-26">
          <mxGeometry y="26" width="160" height="102" as="geometry" />
        </mxCell>
        <mxCell id="Ull-ZQKAS_osXWNF02XS-30" value="" style="line;html=1;strokeWidth=1;align=left;verticalAlign=middle;spacingTop=-1;spacingLeft=3;spacingRight=3;rotatable=0;labelPosition=right;points=[];portConstraint=eastwest;" vertex="1" parent="Ull-ZQKAS_osXWNF02XS-26">
          <mxGeometry y="128" width="160" height="12" as="geometry" />
        </mxCell>
        <mxCell id="Ull-ZQKAS_osXWNF02XS-31" value="+registrarCerdo()&#xa;+calcularEdad()&#xa;+obtenerEventos()&#xa;+obtenerDatosCerdo()&#xa;+actualizarDatosCerdo()" style="text;align=left;verticalAlign=top;spacingLeft=4;spacingRight=4;overflow=hidden;rotatable=0;points=[[0,0.5],[1,0.5]];portConstraint=eastwest;" vertex="1" parent="Ull-ZQKAS_osXWNF02XS-26">
          <mxGeometry y="140" width="160" height="58" as="geometry" />
        </mxCell>
        <mxCell id="Ull-ZQKAS_osXWNF02XS-32" value="Tratamiento" style="swimlane;fontStyle=2;align=center;verticalAlign=top;childLayout=stackLayout;horizontal=1;startSize=26;horizontalStack=0;resizeParent=1;resizeLast=0;collapsible=1;marginBottom=0;rounded=0;shadow=0;strokeWidth=1;" vertex="1" parent="WIyWlLk6GJQsqaUBKTNV-1">
          <mxGeometry x="-20" y="90" width="160" height="194" as="geometry">
            <mxRectangle x="230" y="140" width="160" height="26" as="alternateBounds" />
          </mxGeometry>
        </mxCell>
        <mxCell id="Ull-ZQKAS_osXWNF02XS-33" value="id : int&#xa;cerdo_id : int&#xa;nombre : string&#xa;descripcion : string&#xa;dosis : string&#xa;evento_id : int" style="text;align=left;verticalAlign=top;spacingLeft=4;spacingRight=4;overflow=hidden;rotatable=0;points=[[0,0.5],[1,0.5]];portConstraint=eastwest;rounded=0;shadow=0;html=0;" vertex="1" parent="Ull-ZQKAS_osXWNF02XS-32">
          <mxGeometry y="26" width="160" height="102" as="geometry" />
        </mxCell>
        <mxCell id="Ull-ZQKAS_osXWNF02XS-34" value="" style="line;html=1;strokeWidth=1;align=left;verticalAlign=middle;spacingTop=-1;spacingLeft=3;spacingRight=3;rotatable=0;labelPosition=right;points=[];portConstraint=eastwest;" vertex="1" parent="Ull-ZQKAS_osXWNF02XS-32">
          <mxGeometry y="128" width="160" height="8" as="geometry" />
        </mxCell>
        <mxCell id="Ull-ZQKAS_osXWNF02XS-35" value="+registrarTratamiento()&#xa;+obtenerTratamiento&#xa;+cancelarTratamiento()" style="text;align=left;verticalAlign=top;spacingLeft=4;spacingRight=4;overflow=hidden;rotatable=0;points=[[0,0.5],[1,0.5]];portConstraint=eastwest;" vertex="1" parent="Ull-ZQKAS_osXWNF02XS-32">
          <mxGeometry y="136" width="160" height="58" as="geometry" />
        </mxCell>
        <mxCell id="Ull-ZQKAS_osXWNF02XS-36" value="Recordatorio" style="swimlane;fontStyle=2;align=center;verticalAlign=top;childLayout=stackLayout;horizontal=1;startSize=26;horizontalStack=0;resizeParent=1;resizeLast=0;collapsible=1;marginBottom=0;rounded=0;shadow=0;strokeWidth=1;" vertex="1" parent="WIyWlLk6GJQsqaUBKTNV-1">
          <mxGeometry x="60" y="460" width="160" height="180" as="geometry">
            <mxRectangle x="230" y="140" width="160" height="26" as="alternateBounds" />
          </mxGeometry>
        </mxCell>
        <mxCell id="Ull-ZQKAS_osXWNF02XS-37" value="fecha : date&#xa;mensaje :string&#xa;usuario_id : int&#xa;evento_id :int" style="text;align=left;verticalAlign=top;spacingLeft=4;spacingRight=4;overflow=hidden;rotatable=0;points=[[0,0.5],[1,0.5]];portConstraint=eastwest;rounded=0;shadow=0;html=0;" vertex="1" parent="Ull-ZQKAS_osXWNF02XS-36">
          <mxGeometry y="26" width="160" height="64" as="geometry" />
        </mxCell>
        <mxCell id="Ull-ZQKAS_osXWNF02XS-38" value="" style="line;html=1;strokeWidth=1;align=left;verticalAlign=middle;spacingTop=-1;spacingLeft=3;spacingRight=3;rotatable=0;labelPosition=right;points=[];portConstraint=eastwest;" vertex="1" parent="Ull-ZQKAS_osXWNF02XS-36">
          <mxGeometry y="90" width="160" height="28" as="geometry" />
        </mxCell>
        <mxCell id="Ull-ZQKAS_osXWNF02XS-39" value="+enviarRecordatorio()&#xa;+programarRecordatorio()&#xa;+cancelarRecordatorio()" style="text;align=left;verticalAlign=top;spacingLeft=4;spacingRight=4;overflow=hidden;rotatable=0;points=[[0,0.5],[1,0.5]];portConstraint=eastwest;" vertex="1" parent="Ull-ZQKAS_osXWNF02XS-36">
          <mxGeometry y="118" width="160" height="58" as="geometry" />
        </mxCell>
        <mxCell id="Ull-ZQKAS_osXWNF02XS-44" value="Evento" style="swimlane;fontStyle=2;align=center;verticalAlign=top;childLayout=stackLayout;horizontal=1;startSize=26;horizontalStack=0;resizeParent=1;resizeLast=0;collapsible=1;marginBottom=0;rounded=0;shadow=0;strokeWidth=1;" vertex="1" parent="WIyWlLk6GJQsqaUBKTNV-1">
          <mxGeometry x="-260" y="320" width="160" height="180" as="geometry">
            <mxRectangle x="230" y="140" width="160" height="26" as="alternateBounds" />
          </mxGeometry>
        </mxCell>
        <mxCell id="Ull-ZQKAS_osXWNF02XS-45" value="tipo : string&#xa;fechaCreacion : Date&#xa;cerdo_id : int&#xa;fechaProgramada : Date&#xa;tratamiento_id : int" style="text;align=left;verticalAlign=top;spacingLeft=4;spacingRight=4;overflow=hidden;rotatable=0;points=[[0,0.5],[1,0.5]];portConstraint=eastwest;rounded=0;shadow=0;html=0;" vertex="1" parent="Ull-ZQKAS_osXWNF02XS-44">
          <mxGeometry y="26" width="160" height="84" as="geometry" />
        </mxCell>
        <mxCell id="Ull-ZQKAS_osXWNF02XS-46" value="" style="line;html=1;strokeWidth=1;align=left;verticalAlign=middle;spacingTop=-1;spacingLeft=3;spacingRight=3;rotatable=0;labelPosition=right;points=[];portConstraint=eastwest;" vertex="1" parent="Ull-ZQKAS_osXWNF02XS-44">
          <mxGeometry y="110" width="160" height="10" as="geometry" />
        </mxCell>
        <mxCell id="Ull-ZQKAS_osXWNF02XS-47" value="+programarEvento()&#xa;+cancelarEvento()&#xa;+obtenerDetalles()" style="text;align=left;verticalAlign=top;spacingLeft=4;spacingRight=4;overflow=hidden;rotatable=0;points=[[0,0.5],[1,0.5]];portConstraint=eastwest;" vertex="1" parent="Ull-ZQKAS_osXWNF02XS-44">
          <mxGeometry y="120" width="160" height="58" as="geometry" />
        </mxCell>
        <mxCell id="Ull-ZQKAS_osXWNF02XS-48" value=" Farms" style="swimlane;fontStyle=2;align=center;verticalAlign=top;childLayout=stackLayout;horizontal=1;startSize=26;horizontalStack=0;resizeParent=1;resizeLast=0;collapsible=1;marginBottom=0;rounded=0;shadow=0;strokeWidth=1;" vertex="1" parent="WIyWlLk6GJQsqaUBKTNV-1">
          <mxGeometry x="470" y="405" width="160" height="180" as="geometry">
            <mxRectangle x="230" y="140" width="160" height="26" as="alternateBounds" />
          </mxGeometry>
        </mxCell>
        <mxCell id="Ull-ZQKAS_osXWNF02XS-49" value="id : int&#xa;nombre : string&#xa;locacion : string&#xa;codigo_invitacion : string" style="text;align=left;verticalAlign=top;spacingLeft=4;spacingRight=4;overflow=hidden;rotatable=0;points=[[0,0.5],[1,0.5]];portConstraint=eastwest;rounded=0;shadow=0;html=0;" vertex="1" parent="Ull-ZQKAS_osXWNF02XS-48">
          <mxGeometry y="26" width="160" height="84" as="geometry" />
        </mxCell>
        <mxCell id="Ull-ZQKAS_osXWNF02XS-50" value="" style="line;html=1;strokeWidth=1;align=left;verticalAlign=middle;spacingTop=-1;spacingLeft=3;spacingRight=3;rotatable=0;labelPosition=right;points=[];portConstraint=eastwest;" vertex="1" parent="Ull-ZQKAS_osXWNF02XS-48">
          <mxGeometry y="110" width="160" height="10" as="geometry" />
        </mxCell>
        <mxCell id="Ull-ZQKAS_osXWNF02XS-58" style="edgeStyle=orthogonalEdgeStyle;rounded=0;orthogonalLoop=1;jettySize=auto;html=1;exitX=0;exitY=0.5;exitDx=0;exitDy=0;entryX=0.989;entryY=0.021;entryDx=0;entryDy=0;entryPerimeter=0;" edge="1" parent="WIyWlLk6GJQsqaUBKTNV-1" source="Ull-ZQKAS_osXWNF02XS-49" target="Ull-ZQKAS_osXWNF02XS-31">
          <mxGeometry relative="1" as="geometry" />
        </mxCell>
        <mxCell id="Ull-ZQKAS_osXWNF02XS-64" value="" style="html=1;verticalAlign=bottom;startArrow=oval;startFill=1;endArrow=block;startSize=8;curved=0;rounded=0;entryX=-0.016;entryY=0.145;entryDx=0;entryDy=0;entryPerimeter=0;" edge="1" parent="WIyWlLk6GJQsqaUBKTNV-1" target="Ull-ZQKAS_osXWNF02XS-33">
          <mxGeometry width="60" relative="1" as="geometry">
            <mxPoint x="-100" y="340" as="sourcePoint" />
            <mxPoint x="-40" y="340" as="targetPoint" />
            <Array as="points">
              <mxPoint x="-50" y="340" />
              <mxPoint x="-50" y="240" />
            </Array>
          </mxGeometry>
        </mxCell>
        <mxCell id="Ull-ZQKAS_osXWNF02XS-65" value="" style="html=1;verticalAlign=bottom;startArrow=oval;startFill=1;endArrow=block;startSize=8;curved=0;rounded=0;entryX=0.024;entryY=-0.069;entryDx=0;entryDy=0;entryPerimeter=0;exitX=1.014;exitY=0.143;exitDx=0;exitDy=0;exitPerimeter=0;" edge="1" parent="WIyWlLk6GJQsqaUBKTNV-1" source="Ull-ZQKAS_osXWNF02XS-45" target="Ull-ZQKAS_osXWNF02XS-31">
          <mxGeometry width="60" relative="1" as="geometry">
            <mxPoint x="-90" y="350" as="sourcePoint" />
            <mxPoint x="-13" y="141" as="targetPoint" />
            <Array as="points">
              <mxPoint x="170" y="360" />
              <mxPoint x="170" y="266" />
            </Array>
          </mxGeometry>
        </mxCell>
        <mxCell id="Ull-ZQKAS_osXWNF02XS-66" value="" style="html=1;verticalAlign=bottom;startArrow=oval;startFill=1;endArrow=block;startSize=8;curved=0;rounded=0;entryX=0;entryY=0;entryDx=0;entryDy=0;" edge="1" parent="WIyWlLk6GJQsqaUBKTNV-1" target="Ull-ZQKAS_osXWNF02XS-36">
          <mxGeometry width="60" relative="1" as="geometry">
            <mxPoint x="-97" y="460" as="sourcePoint" />
            <mxPoint x="-3" y="151" as="targetPoint" />
          </mxGeometry>
        </mxCell>
        <mxCell id="Ull-ZQKAS_osXWNF02XS-67" value="" style="html=1;verticalAlign=bottom;startArrow=oval;startFill=1;endArrow=block;startSize=8;curved=0;rounded=0;entryX=0;entryY=0.5;entryDx=0;entryDy=0;exitX=1;exitY=0.5;exitDx=0;exitDy=0;" edge="1" parent="WIyWlLk6GJQsqaUBKTNV-1" source="Ull-ZQKAS_osXWNF02XS-33" target="Ull-ZQKAS_osXWNF02XS-29">
          <mxGeometry width="60" relative="1" as="geometry">
            <mxPoint x="-70" y="370" as="sourcePoint" />
            <mxPoint x="7" y="161" as="targetPoint" />
          </mxGeometry>
        </mxCell>
        <mxCell id="Ull-ZQKAS_osXWNF02XS-68" value="" style="html=1;verticalAlign=bottom;startArrow=oval;startFill=1;endArrow=block;startSize=8;curved=0;rounded=0;entryX=0;entryY=0.5;entryDx=0;entryDy=0;" edge="1" parent="WIyWlLk6GJQsqaUBKTNV-1" target="zkfFHV4jXpPFQw0GAbJ--3">
          <mxGeometry width="60" relative="1" as="geometry">
            <mxPoint x="400" y="199" as="sourcePoint" />
            <mxPoint x="477" y="-10" as="targetPoint" />
          </mxGeometry>
        </mxCell>
      </root>
    </mxGraphModel>
  </diagram>
</mxfile>
